<?xml version="1.0" standalone="no"?>
<!DOCTYPE svg PUBLIC "-//W3C//DTD SVG 20010904//EN"
 "http://www.w3.org/TR/2001/REC-SVG-20010904/DTD/svg10.dtd">
<svg version="1.0" xmlns="http://www.w3.org/2000/svg"
 width="981.000000pt" height="363.000000pt" viewBox="0 0 981.000000 363.000000"
 preserveAspectRatio="xMidYMid meet">

<g transform="translate(0.000000,363.000000) scale(0.100000,-0.100000)"
fill="#000000" stroke="none">
<path d="M5835 2312 c-68 -42 -135 -156 -135 -232 0 -20 -12 -43 -35 -69 l-35
-38 0 -172 c0 -193 3 -204 86 -275 100 -86 211 -104 316 -53 69 34 125 78 155
122 22 32 23 42 23 208 l0 173 -35 34 c-26 25 -35 42 -35 67 0 80 -73 203
-141 239 -40 20 -127 18 -164 -4z m129 -92 c34 -13 73 -75 80 -130 l6 -45
-131 0 -131 0 7 45 c17 109 85 162 169 130z m16 -365 c28 -29 31 -77 7 -103
-10 -11 -17 -35 -17 -60 l0 -42 -50 0 c-50 0 -50 0 -50 33 0 18 -9 50 -20 72
-22 43 -19 68 13 103 29 31 86 30 117 -3z"/>
<path d="M2685 2034 c-43 -23 -65 -45 -82 -79 -21 -39 -20 -122 0 -162 15 -29
61 -73 76 -73 3 0 5 24 3 52 -3 43 1 60 20 88 33 49 77 62 162 47 76 -13 95
-6 111 37 12 33 0 54 -46 81 -46 27 -201 33 -244 9z"/>
<path d="M4650 2028 c-104 -53 -123 -217 -32 -288 35 -28 40 -25 35 23 -6 52
16 109 49 131 28 18 70 21 154 11 57 -7 62 -6 78 16 50 72 -24 129 -168 129
-55 0 -83 -5 -116 -22z"/>
<path d="M6381 2024 c-100 -50 -146 -148 -139 -294 7 -154 71 -244 196 -275
45 -12 75 -14 100 -8 l36 9 -36 22 c-55 34 -124 116 -142 169 -30 88 -15 185
35 236 28 28 33 29 92 23 34 -3 78 -8 98 -12 45 -7 69 14 69 60 0 60 -69 96
-183 96 -59 0 -83 -5 -126 -26z"/>
<path d="M3066 2018 c-13 -18 -16 -53 -16 -173 l0 -150 26 55 c14 30 43 78 65
107 31 42 39 61 39 95 0 59 -22 88 -65 88 -24 0 -39 -7 -49 -22z"/>
<path d="M3249 1913 c-154 -157 -192 -222 -197 -344 -4 -73 -3 -77 24 -98 31
-24 59 -21 87 11 13 15 17 38 17 93 0 59 4 75 20 90 11 10 22 16 24 14 2 -2
33 -52 70 -110 41 -65 75 -109 88 -112 45 -12 88 24 88 74 0 12 -31 73 -70
134 -38 61 -70 115 -70 120 0 5 32 41 70 81 54 55 70 79 70 101 0 43 -25 73
-63 73 -27 0 -49 -17 -158 -127z"/>
<path d="M3554 2019 c-17 -19 -19 -41 -22 -248 -4 -249 3 -296 44 -311 33 -13
72 3 84 35 6 15 10 130 10 256 0 226 -4 262 -34 281 -21 15 -63 8 -82 -13z"/>
<path d="M3754 2019 c-17 -19 -19 -38 -19 -164 0 -180 14 -209 100 -217 l30
-3 0 188 c0 175 -1 190 -19 203 -29 20 -70 17 -92 -7z"/>
<path d="M4184 2032 c-27 -17 -34 -56 -34 -177 0 -173 16 -208 100 -217 l35
-3 3 165 c3 177 1 200 -24 224 -16 17 -61 21 -80 8z"/>
<path d="M5305 2016 c-14 -21 -16 -50 -13 -174 3 -131 5 -153 22 -171 23 -25
94 -47 108 -33 6 6 8 82 6 185 -3 155 -5 177 -22 196 -27 30 -81 28 -101 -3z"/>
<path d="M6784 2032 c-27 -18 -34 -56 -34 -194 l0 -143 34 63 c19 35 50 83 70
107 27 32 36 53 36 80 0 37 -14 74 -34 87 -14 10 -58 10 -72 0z"/>
<path d="M6974 1931 c-171 -167 -216 -243 -218 -368 -1 -83 13 -106 64 -106
50 0 64 23 68 111 4 73 22 119 42 107 5 -3 36 -50 71 -106 65 -107 91 -127
133 -108 23 11 46 47 46 73 0 7 -33 66 -74 132 l-75 119 64 65 c34 36 68 75
75 88 15 30 4 79 -20 92 -43 23 -64 11 -176 -99z"/>
<path d="M2722 1816 c-18 -40 -15 -90 6 -109 10 -10 40 -24 66 -33 52 -18 72
-43 53 -66 -20 -26 -58 -29 -146 -11 l-83 18 -19 -24 c-61 -75 22 -143 175
-143 95 -1 150 21 188 74 19 27 23 46 23 105 0 64 -3 75 -30 110 -35 43 -124
92 -182 100 -35 5 -40 2 -51 -21z"/>
<path d="M4692 1816 c-30 -66 -5 -120 63 -137 76 -19 97 -67 39 -89 -20 -8
-51 -6 -117 7 l-90 17 -18 -23 c-62 -76 27 -144 186 -143 103 0 156 27 192 97
20 38 20 122 0 160 -33 63 -120 120 -200 131 -39 6 -44 4 -55 -20z"/>
<path d="M5290 1584 c0 -66 4 -86 19 -105 19 -23 24 -24 171 -24 149 0 152 0
172 25 14 17 18 33 14 55 -10 49 -28 55 -155 55 -124 0 -187 17 -210 57 -8 14
-10 -1 -11 -63z"/>
<path d="M3730 1591 c0 -81 15 -117 52 -130 40 -14 248 -14 285 0 34 13 43 25
43 66 0 52 -27 63 -150 63 -117 0 -168 11 -195 40 -28 31 -35 24 -35 -39z"/>
<path d="M4150 1585 c0 -84 18 -122 64 -130 18 -4 88 -5 154 -3 134 3 162 15
162 70 0 55 -27 68 -147 68 -120 0 -171 10 -198 40 -29 32 -35 24 -35 -45z"/>
<path d="M6562 1595 c-30 -7 -56 -15 -58 -18 -3 -3 9 -21 26 -41 62 -70 152
-67 158 5 4 42 -18 70 -51 68 -12 -1 -46 -7 -75 -14z"/>
</g>
</svg>
